<svg width="69" height="72" viewBox="0 0 69 72" fill="none" xmlns="http://www.w3.org/2000/svg">
<path opacity="0.8" d="M13.7509 28.9942C8.45393 28.3582 1.28516 38.3267 1.28516 38.3267V70.9905H67.714V28.9942C67.714 28.9942 62.6092 34.8456 59.1264 33.8509C53.5671 32.2631 56.7112 15.7859 51.3145 12.9956C47.4055 10.9746 44.867 19.0723 41.0649 16.5191C37.2391 13.9501 38.5423 5.16599 34.9151 1.85376C26.7117 -5.63722 33.4542 38.6391 24.1668 38.3267C19.5806 38.1725 18.3269 29.5437 13.7509 28.9942Z" fill="url(#paint0_linear_5578_10379)"/>
<path d="M1.28516 38.3267C1.28516 38.3267 8.45393 28.3582 13.7509 28.9942C18.3269 29.5437 19.5806 38.1724 24.1668 38.3267C33.4542 38.6391 26.7117 -5.63722 34.9151 1.85376C38.5423 5.16599 37.2391 13.9501 41.0649 16.5191C44.867 19.0723 47.4055 10.9746 51.3145 12.9956C56.7112 15.7859 53.5671 32.2631 59.1264 33.8509C62.6092 34.8456 67.714 28.9942 67.714 28.9942" stroke="#F04438" stroke-width="2" stroke-linecap="round" stroke-linejoin="round"/>
<defs>
<linearGradient id="paint0_linear_5578_10379" x1="34.4996" y1="1" x2="34.4996" y2="70.9905" gradientUnits="userSpaceOnUse">
<stop stop-color="#F04438" stop-opacity="0.3"/>
<stop offset="1" stop-color="white" stop-opacity="0"/>
</linearGradient>
</defs>
</svg>
