<svg width="72" height="72" viewBox="0 0 72 72" fill="none" xmlns="http://www.w3.org/2000/svg">
<path d="M13.6776 52.9658C9.74977 53.8913 9.50055 61.5995 7.0486 63.8134C4.59666 66.0273 1 59.5734 1 59.5734V70.8333H70.7267V42.3338C68.5354 44.5454 67.5856 55.1309 64.4063 58.0993C61.227 61.0677 62.3565 44.2005 59.7022 35.8524C57.0478 27.5043 54.953 48.8592 51.7103 47.4247C48.4677 45.9903 47.8893 54.901 45.5222 53.185C43.1551 51.4689 41.7465 42.2143 39.0327 39.3849C36.3189 36.5556 35.3186 12.7353 32.6939 7.5279C30.0693 2.32048 28.9996 25.5913 26.3552 26.615C23.7107 27.6387 22.2448 10.1557 20.0164 12.7353C17.7879 15.315 17.6054 52.0404 13.6776 52.9658Z" fill="url(#paint0_linear_5578_31765)"/>
<path d="M1 59.5959C1.6373 60.6529 4.5316 65.9976 7.12654 63.6546C9.72148 61.3116 9.78984 52.9658 13.6776 52.9658C17.5653 52.9658 17.7879 15.315 20.0164 12.7353C22.2449 10.1557 23.7107 27.6387 26.3552 26.615C28.9996 25.5913 30.0693 2.32048 32.694 7.5279C35.3186 12.7353 36.319 36.5556 39.0327 39.3849C41.7465 42.2143 42.893 51.2498 45.2601 52.9658C47.6272 54.6818 47.8629 47.4247 51.7103 47.4247C55.5578 47.4247 57.0723 27.588 59.7266 35.9361C62.381 44.2842 61.2086 61.156 64.3879 58.1876C67.5672 55.2192 68.2672 45.1065 70.7267 42.4578" stroke="#5DC264" stroke-width="2" stroke-linecap="round" stroke-linejoin="round"/>
<defs>
<linearGradient id="paint0_linear_5578_31765" x1="35.8633" y1="6.76929" x2="35.8633" y2="70.8333" gradientUnits="userSpaceOnUse">
<stop stop-color="#F04438" stop-opacity="0.3"/>
<stop offset="0.0001" stop-color="#5DC264" stop-opacity="0.3"/>
<stop offset="1" stop-color="white" stop-opacity="0"/>
</linearGradient>
</defs>
</svg>
