<svg width="112" height="72" viewBox="0 0 112 72" fill="none" xmlns="http://www.w3.org/2000/svg">
<path d="M11.3528 31.5349C7.27947 33.5092 1 56.8108 1 56.8108V70.9831H111V41.2949C111 41.2949 103.215 21.6799 101.432 19.5226C99.6486 17.3652 95.0354 16.7697 90.9648 17.02C86.8943 17.2703 83.5973 4.00665 80.1807 3.75639C76.7641 3.50613 72.646 23.0262 69.3966 23.5267C66.1473 24.0272 60.5266 7.00973 56.498 5.50819C52.4695 4.00665 47.969 13.2661 43.758 13.5164C39.5469 13.7667 37.2611 0.753307 32.921 1.00356C28.5809 1.25382 26.9301 27.048 22.2426 32.7862C18.1045 37.8519 15.5878 29.4822 11.3528 31.5349Z" fill="url(#paint0_linear_5578_10288)"/>
<path d="M1 56.8108C1 56.8108 7.27947 33.5092 11.3528 31.5349C15.5878 29.4822 18.1045 37.8519 22.2426 32.7862C26.9301 27.048 28.5809 1.25382 32.921 1.00356C37.2611 0.753307 39.5469 13.7667 43.758 13.5164C47.969 13.2661 52.4695 4.00665 56.498 5.50819C60.5265 7.00973 66.1473 24.0272 69.3966 23.5267C72.646 23.0262 76.7641 3.50613 80.1807 3.75639C83.5973 4.00665 86.8943 17.2703 90.9648 17.02C95.0354 16.7697 99.6486 17.3652 101.432 19.5226C103.215 21.6799 111 41.2949 111 41.2949" stroke="#3694EB" stroke-width="2" stroke-linecap="round" stroke-linejoin="round"/>
<defs>
<linearGradient id="paint0_linear_5578_10288" x1="56" y1="1" x2="56" y2="70.9831" gradientUnits="userSpaceOnUse">
<stop stop-color="#3694EB" stop-opacity="0.3"/>
<stop offset="1" stop-color="white" stop-opacity="0"/>
</linearGradient>
</defs>
</svg>
