<svg className='events' width="24" height="24" viewBox="0 0 24 24" fill="none" xmlns="http://www.w3.org/2000/svg">
<path d="M12.9917 7.33702L11.7886 5.24277C11.4376 4.63171 10.557 4.62879 10.202 5.2375L8.91995 7.43524C8.65571 7.88823 8.21013 8.20636 7.6959 8.30921L6.11583 8.62523C5.40982 8.76643 5.13472 9.62908 5.62864 10.1529L6.75996 11.3528C7.18155 11.8 7.35106 12.4286 7.21142 13.0271L6.67549 15.3239C6.49205 16.1101 7.34097 16.7324 8.0355 16.3208L10.0652 15.118C10.6415 14.7765 11.3582 14.7765 11.9345 15.118L13.9642 16.3208C14.6587 16.7324 15.5076 16.1101 15.3242 15.3239L14.7804 12.9936C14.6451 12.4137 14.7999 11.8041 15.1956 11.359L16.3548 10.0549C16.8251 9.52578 16.5436 8.68588 15.8494 8.54704L14.2218 8.22153C13.7034 8.11785 13.255 7.79543 12.9917 7.33702Z" stroke="#5F6D7E" stroke-width="1.67"/>
<path d="M21.0832 10.9993C21.0832 16.5682 16.5687 21.0827 10.9998 21.0827C5.43097 21.0827 0.916504 16.5682 0.916504 10.9993C0.916504 5.43048 5.43097 0.916016 10.9998 0.916016C16.5687 0.916016 21.0832 5.43048 21.0832 10.9993Z" stroke="#5F6D7E" stroke-width="1.67"/>
</svg>
