<svg width="24" height="24" viewBox="0 0 24 24" fill="none" xmlns="http://www.w3.org/2000/svg">
<path d="M8.24984 0.916016L13.7498 0.916016C16.3167 0.916016 17.6002 0.916015 18.5806 1.41557C19.443 1.85499 20.1442 2.55615 20.5836 3.41856C21.0832 4.39899 21.0832 5.68244 21.0832 8.24935V13.7493C21.0832 16.3163 21.0832 17.5997 20.5836 18.5801C20.1442 19.4425 19.443 20.1437 18.5806 20.5831C17.6002 21.0827 16.3167 21.0827 13.7498 21.0827H8.24984M8.24984 0.916016C5.68293 0.916016 4.39948 0.916016 3.41905 1.41557C2.55664 1.85499 1.85548 2.55615 1.41606 3.41856C0.916504 4.39899 0.916504 5.68244 0.916504 8.24935L0.916504 13.7493C0.916504 16.3163 0.916504 17.5997 1.41606 18.5801C1.85548 19.4425 2.55664 20.1437 3.41905 20.5831C4.39948 21.0827 5.68293 21.0827 8.24984 21.0827M8.24984 0.916016L8.24984 21.0827M8.24984 10.9993L21.9998 10.9993" stroke="#5F6D7E" stroke-width="1.67" stroke-linecap="round"/>
</svg>
