<svg width="24" height="24" viewBox="0 0 24 24" fill="none" xmlns="http://www.w3.org/2000/svg">
<path d="M5.25016 18.0079C5.92203 18.7691 6.90503 19.2492 8.00016 19.2492C9.0953 19.2492 10.0783 18.7691 10.7502 18.0079M11.6668 1.77344C13.8549 2.86081 15.4917 4.89104 16.0457 7.33254M13.4978 12.0817V9.16596C13.4978 6.12054 11.0456 3.66596 8.00016 3.66596C4.95474 3.66596 2.46933 6.01589 2.46933 9.16596V12.062C2.46933 12.5049 2.4003 12.9449 2.2649 13.365L1.58797 15.4656C1.56943 15.5231 1.61082 15.5825 1.66944 15.5825H14.2914C14.3534 15.5825 14.3974 15.5221 14.3784 15.4631L13.6968 13.3483C13.5649 12.9391 13.4978 12.5117 13.4978 12.0817Z" stroke="#5F6D7E" stroke-width="1.67" stroke-linecap="round"/>
</svg>
