<svg width="24" height="24" viewBox="0 0 24 24" fill="none" xmlns="http://www.w3.org/2000/svg">
<path d="M14.8781 14.5102L15.6881 14.3077L15.6881 14.3077L14.8781 14.5102ZM14.6947 13.7768L13.8847 13.9794L13.8847 13.9794L14.6947 13.7768ZM1.30594 13.7768L0.495868 13.5743L1.30594 13.7768ZM1.1226 14.5102L1.93267 14.7127L1.1226 14.5102ZM1.94432 12.7374L1.62089 11.9676H1.62089L1.94432 12.7374ZM1.56563 13.0331L2.23401 13.5336H2.23401L1.56563 13.0331ZM14.4351 13.0331L13.7667 13.5336L13.7667 13.5336L14.4351 13.0331ZM14.0564 12.7374L14.3798 11.9676H14.3798L14.0564 12.7374ZM14.6346 16.1999L14.202 15.4857H14.2019L14.6346 16.1999ZM15.0354 15.6866L15.8332 15.9331V15.9331L15.0354 15.6866ZM1.36605 16.1999L1.79873 15.4857H1.79873L1.36605 16.1999ZM0.96526 15.6866L1.76303 15.44L1.76303 15.44L0.96526 15.6866ZM7.34443 1.07718L6.971 0.330334V0.330334L7.34443 1.07718ZM1.97883 3.75998L2.35226 4.50682L1.97883 3.75998ZM1.32292 5.72772L0.576074 6.10114L0.576074 6.10114L1.32292 5.72772ZM1.48233 6.04654L2.22918 5.67311L2.22918 5.67311L1.48233 6.04654ZM14.5184 6.04654L13.7715 5.67311L13.7715 5.67311L14.5184 6.04654ZM14.6778 5.72772L13.9309 5.35429L13.9309 5.35429L14.6778 5.72772ZM14.0218 3.75998L14.3953 3.01313L14.0218 3.75998ZM8.65625 1.07718L9.02968 0.330334L8.65625 1.07718ZM15.0205 4.81888L15.8555 4.81254V4.81254L15.0205 4.81888ZM14.8413 4.28142L14.1695 4.77733L14.1695 4.77733L14.8413 4.28142ZM1.15936 4.28142L0.487573 3.7855L0.487573 3.7855L1.15936 4.28142ZM0.980204 4.81888L0.145228 4.81254V4.81254L0.980204 4.81888ZM14.3501 6.2367L14.0778 5.44734L14.0778 5.44734L14.3501 6.2367ZM14.4357 6.18378L15.02 6.78032L15.02 6.78031L14.4357 6.18378ZM1.65058 6.2367L1.92285 5.44734H1.92285L1.65058 6.2367ZM1.56495 6.18378L0.980687 6.78032L0.980691 6.78032L1.56495 6.18378ZM7.83131 0.873141L7.67734 0.05246L7.83131 0.873141ZM8.16937 0.873141L8.32334 0.0524599L8.16937 0.873141ZM2.58201 11.7492C2.58201 12.2104 2.95585 12.5842 3.41701 12.5842C3.87817 12.5842 4.25201 12.2104 4.25201 11.7492H2.58201ZM4.25201 6.24922C4.25201 5.78807 3.87817 5.41422 3.41701 5.41422C2.95585 5.41422 2.58201 5.78807 2.58201 6.24922H4.25201ZM7.16534 11.7492C7.16534 12.2104 7.53918 12.5842 8.00034 12.5842C8.4615 12.5842 8.83534 12.2104 8.83534 11.7492H7.16534ZM8.83534 7.16589C8.83534 6.70473 8.4615 6.33089 8.00034 6.33089C7.53918 6.33089 7.16534 6.70473 7.16534 7.16589H8.83534ZM11.7487 11.7492C11.7487 12.2104 12.1225 12.5842 12.5837 12.5842C13.0448 12.5842 13.4187 12.2104 13.4187 11.7492H11.7487ZM13.4187 7.16589C13.4187 6.70473 13.0448 6.33089 12.5837 6.33089C12.1225 6.33089 11.7487 6.70473 11.7487 7.16589H13.4187ZM2.54548 17.1676H13.4552V15.4976H2.54548V17.1676ZM15.6881 14.3077L15.5048 13.5743L13.8847 13.9794L14.068 14.7127L15.6881 14.3077ZM13.2719 11.8309H2.72881V13.5009H13.2719V11.8309ZM0.495868 13.5743L0.312534 14.3077L1.93267 14.7127L2.11601 13.9794L0.495868 13.5743ZM2.72881 11.8309C2.3969 11.8309 1.98426 11.815 1.62089 11.9676L2.26775 13.5073C2.23701 13.5202 2.23105 13.5132 2.30714 13.5077C2.39373 13.5014 2.51216 13.5009 2.72881 13.5009V11.8309ZM2.11601 13.9794C2.16855 13.7692 2.19776 13.6544 2.22484 13.5719C2.24864 13.4994 2.254 13.5069 2.23401 13.5336L0.897236 12.5326C0.660999 12.8481 0.576368 13.2523 0.495868 13.5743L2.11601 13.9794ZM1.62089 11.9676C1.33373 12.0883 1.08393 12.2833 0.897236 12.5326L2.23401 13.5336C2.24272 13.522 2.25436 13.5129 2.26775 13.5073L1.62089 11.9676ZM15.5048 13.5743C15.4243 13.2523 15.3397 12.8481 15.1034 12.5326L13.7667 13.5336C13.7467 13.5069 13.752 13.4994 13.7758 13.5719C13.8029 13.6544 13.8321 13.7692 13.8847 13.9794L15.5048 13.5743ZM13.2719 13.5009C13.4885 13.5009 13.607 13.5014 13.6935 13.5077C13.7696 13.5132 13.7637 13.5202 13.7329 13.5073L14.3798 11.9676C14.0164 11.815 13.6038 11.8309 13.2719 11.8309V13.5009ZM15.1034 12.5326C14.9168 12.2833 14.667 12.0883 14.3798 11.9676L13.7329 13.5073C13.7463 13.5129 13.758 13.522 13.7667 13.5336L15.1034 12.5326ZM13.4552 17.1676C13.76 17.1676 14.0436 17.1683 14.2765 17.1477C14.5156 17.1266 14.7985 17.0769 15.0673 16.914L14.2019 15.4857C14.2518 15.4555 14.2651 15.4722 14.1293 15.4842C13.9873 15.4968 13.7907 15.4976 13.4552 15.4976V17.1676ZM14.068 14.7127C14.1494 15.0381 14.1963 15.2291 14.2186 15.3699C14.2399 15.5046 14.2204 15.4957 14.2377 15.44L15.8332 15.9331C15.926 15.6328 15.9056 15.3463 15.8681 15.1092C15.8316 14.8783 15.7621 14.6034 15.6881 14.3077L14.068 14.7127ZM15.0673 16.914C15.4341 16.6918 15.7066 16.3428 15.8332 15.9331L14.2377 15.44C14.2318 15.4591 14.219 15.4754 14.202 15.4857L15.0673 16.914ZM2.54548 15.4976C2.21 15.4976 2.01338 15.4968 1.87135 15.4842C1.73554 15.4722 1.74885 15.4555 1.79873 15.4857L0.933357 16.914C1.20221 17.0769 1.48509 17.1266 1.72418 17.1477C1.95704 17.1683 2.24065 17.1676 2.54548 17.1676V15.4976ZM0.312534 14.3077C0.238602 14.6034 0.169071 14.8783 0.13258 15.1092C0.0951144 15.3463 0.0746706 15.6328 0.167494 15.9331L1.76303 15.44C1.78025 15.4957 1.76083 15.5046 1.78211 15.3699C1.80437 15.2291 1.85131 15.0381 1.93267 14.7127L0.312534 14.3077ZM1.79873 15.4857C1.78163 15.4754 1.76893 15.4591 1.76303 15.44L0.167494 15.9331C0.294114 16.3428 0.566614 16.6918 0.933357 16.914L1.79873 15.4857ZM1.81029 7.08422H14.1904V5.41422H1.81029V7.08422ZM6.971 0.330334L1.60541 3.01313L2.35226 4.50682L7.71785 1.82403L6.971 0.330334ZM0.576074 6.10114L0.735483 6.41996L2.22918 5.67311L2.06977 5.35429L0.576074 6.10114ZM15.2652 6.41996L15.4246 6.10114L13.9309 5.35429L13.7715 5.67311L15.2652 6.41996ZM14.3953 3.01313L9.02968 0.330334L8.28283 1.82403L13.6484 4.50682L14.3953 3.01313ZM15.4246 6.10114C15.5332 5.88387 15.6378 5.6763 15.7106 5.49499C15.7871 5.30462 15.8575 5.0767 15.8555 4.81254L14.1855 4.82522C14.1852 4.78112 14.1989 4.77803 14.1611 4.87226C14.1196 4.97557 14.0519 5.11238 13.9309 5.35429L15.4246 6.10114ZM13.6484 4.50682C13.8903 4.62778 14.0266 4.69662 14.1218 4.75436C14.2086 4.80702 14.1957 4.81281 14.1695 4.77733L15.5131 3.78551C15.3562 3.57297 15.1632 3.43284 14.9878 3.32644C14.8207 3.22512 14.6125 3.12176 14.3953 3.01313L13.6484 4.50682ZM15.8555 4.81254C15.8526 4.44264 15.7328 4.08311 15.5131 3.7855L14.1695 4.77733C14.1798 4.79121 14.1854 4.80797 14.1855 4.82522L15.8555 4.81254ZM1.60541 3.01313C1.38814 3.12176 1.17998 3.22512 1.01292 3.32644C0.837483 3.43284 0.644464 3.57297 0.487573 3.7855L1.83114 4.77733C1.80495 4.81281 1.79208 4.80702 1.87892 4.75436C1.97411 4.69662 2.11034 4.62778 2.35226 4.50682L1.60541 3.01313ZM2.06977 5.35429C1.94881 5.11238 1.88113 4.97557 1.83961 4.87226C1.80174 4.77803 1.81551 4.78112 1.81518 4.82522L0.145228 4.81254C0.143223 5.0767 0.213556 5.30462 0.290064 5.49499C0.362925 5.6763 0.46744 5.88387 0.576074 6.10114L2.06977 5.35429ZM0.487573 3.7855C0.267877 4.08311 0.148036 4.44263 0.145228 4.81254L1.81518 4.82522C1.81531 4.80797 1.8209 4.79121 1.83114 4.77733L0.487573 3.7855ZM14.1904 7.08422C14.2121 7.08422 14.4222 7.09512 14.6224 7.02606L14.0778 5.44734C14.1566 5.42016 14.2188 5.41532 14.2355 5.41428C14.2428 5.41382 14.2444 5.41397 14.2347 5.41409C14.2249 5.41421 14.2124 5.41422 14.1904 5.41422V7.08422ZM13.7715 5.67311C13.7617 5.69282 13.7561 5.70396 13.7516 5.7127C13.7471 5.72132 13.7477 5.71982 13.7514 5.71348C13.7598 5.69902 13.7919 5.64555 13.8515 5.58724L15.02 6.78031C15.1713 6.63213 15.2555 6.43941 15.2652 6.41996L13.7715 5.67311ZM14.6224 7.02606C14.7715 6.97463 14.9073 6.89068 15.02 6.78032L13.8515 5.58724C13.9156 5.52441 13.9929 5.47662 14.0778 5.44734L14.6224 7.02606ZM1.81029 5.41422C1.78825 5.41422 1.77579 5.41421 1.76595 5.41409C1.75626 5.41397 1.75787 5.41382 1.76518 5.41428C1.78187 5.41532 1.84407 5.42016 1.92285 5.44734L1.37831 7.02606C1.57852 7.09512 1.78856 7.08422 1.81029 7.08422V5.41422ZM0.735483 6.41996C0.745201 6.43939 0.829387 6.63213 0.980687 6.78032L2.14922 5.58724C2.20876 5.64555 2.24091 5.69902 2.2493 5.71348C2.25298 5.71982 2.25356 5.72132 2.24912 5.71271C2.24461 5.70396 2.23903 5.69282 2.22918 5.67311L0.735483 6.41996ZM1.92285 5.44734C2.00774 5.47662 2.08506 5.5244 2.14922 5.58724L0.980691 6.78032C1.09338 6.89069 1.2292 6.97463 1.37831 7.02606L1.92285 5.44734ZM7.71785 1.82403C7.84574 1.76008 7.91307 1.72672 7.9639 1.70461C8.00668 1.68599 8.00536 1.69006 7.98528 1.69382L7.67734 0.05246C7.40931 0.102746 7.16822 0.231729 6.971 0.330334L7.71785 1.82403ZM9.02968 0.330334C8.83247 0.231729 8.59137 0.102746 8.32334 0.0524599L8.0154 1.69382C7.99532 1.69006 7.994 1.68599 8.03678 1.70461C8.08761 1.72672 8.15494 1.76008 8.28283 1.82403L9.02968 0.330334ZM7.98528 1.69382C7.99523 1.69196 8.00545 1.69195 8.0154 1.69382L8.32334 0.0524599C8.10987 0.0124093 7.89081 0.0124092 7.67734 0.05246L7.98528 1.69382ZM4.25201 11.7492V6.24922H2.58201V11.7492H4.25201ZM8.83534 11.7492V7.16589H7.16534V11.7492H8.83534ZM13.4187 11.7492V7.16589H11.7487V11.7492H13.4187Z" fill="#5F6D7E"/>
</svg>
