<svg width="24" height="24" viewBox="0 0 24 24" fill="none" xmlns="http://www.w3.org/2000/svg">
<path d="M1.75016 2.58268L8.87461 8.12392C9.53664 8.63883 10.4637 8.63883 11.1257 8.12392L18.2502 2.58268M3.76683 16.3327H16.2335C17.2603 16.3327 17.7736 16.3327 18.1658 16.1329C18.5108 15.9571 18.7912 15.6766 18.967 15.3317C19.1668 14.9395 19.1668 14.4261 19.1668 13.3993V4.59935C19.1668 3.57259 19.1668 3.0592 18.967 2.66703C18.7912 2.32207 18.5108 2.0416 18.1658 1.86584C17.7736 1.66602 17.2603 1.66602 16.2335 1.66602H3.76683C2.74007 1.66602 2.22668 1.66602 1.83451 1.86584C1.48955 2.0416 1.20909 2.32207 1.03332 2.66703C0.833496 3.0592 0.833496 3.57259 0.833496 4.59935V13.3993C0.833496 14.4261 0.833496 14.9395 1.03332 15.3317C1.20909 15.6766 1.48955 15.9571 1.83451 16.1329C2.22668 16.3327 2.74007 16.3327 3.76683 16.3327Z" stroke="#5F6D7E" stroke-width="1.67"/>
</svg>
