<svg width="287" height="234" viewBox="0 0 287 234" fill="none" xmlns="http://www.w3.org/2000/svg">
<path d="M0 26.7979C0 25.6933 0.895431 24.7979 2 24.7979H8.18293C9.2875 24.7979 10.1829 25.6933 10.1829 26.7979V233H0V26.7979Z" fill="#437EF7"/>
<path d="M13.6743 163.006C13.6743 161.902 14.5697 161.006 15.6743 161.006H21.8572C22.9618 161.006 23.8572 161.902 23.8572 163.006V233H13.6743V163.006Z" fill="#5CB1FF"/>
<path d="M43.8569 114.857C43.8569 113.753 44.7524 112.857 45.8569 112.857H52.0399C53.1444 112.857 54.0399 113.753 54.0399 114.857V233H43.8569V114.857Z" fill="#437EF7"/>
<path d="M57.5312 77.5714C57.5312 76.4668 58.4267 75.5714 59.5312 75.5714H65.7142C66.8187 75.5714 67.7142 76.4668 67.7142 77.5714V233H57.5312V77.5714Z" fill="#5CB1FF"/>
<path d="M87.7144 100.244C87.7144 99.1391 88.6098 98.2437 89.7144 98.2437H95.8973C97.0019 98.2437 97.8973 99.1391 97.8973 100.244V233H87.7144V100.244Z" fill="#437EF7"/>
<path d="M101.389 141.64C101.389 140.536 102.284 139.64 103.389 139.64H109.572C110.676 139.64 111.572 140.536 111.572 141.64V233H101.389V141.64Z" fill="#5CB1FF"/>
<path d="M131.571 4.37121C131.571 3.26664 132.467 2.37122 133.571 2.37122H139.754C140.859 2.37122 141.754 3.26665 141.754 4.37122V233H131.571V4.37121Z" fill="#437EF7"/>
<path d="M145.246 60.3176C145.246 59.2131 146.141 58.3176 147.246 58.3176H153.429C154.533 58.3176 155.429 59.2131 155.429 60.3176V233H145.246V60.3176Z" fill="#5CB1FF"/>
<path d="M175.429 117.604C175.429 116.499 176.324 115.604 177.429 115.604H183.612C184.716 115.604 185.612 116.499 185.612 117.604V233H175.429V117.604Z" fill="#437EF7"/>
<path d="M189.103 101.579C189.103 100.474 189.998 99.579 191.103 99.579H197.286C198.391 99.579 199.286 100.474 199.286 101.579V233H189.103V101.579Z" fill="#5CB1FF"/>
<path d="M219.286 30.2941C219.286 29.1895 220.181 28.2941 221.286 28.2941H227.469C228.573 28.2941 229.469 29.1895 229.469 30.2941V233H219.286V30.2941Z" fill="#437EF7"/>
<path d="M232.96 117.604C232.96 116.499 233.855 115.604 234.96 115.604H241.143C242.247 115.604 243.143 116.499 243.143 117.604V233H232.96V117.604Z" fill="#5CB1FF"/>
<path d="M263.143 140.305C263.143 139.2 264.038 138.305 265.143 138.305H271.326C272.431 138.305 273.326 139.2 273.326 140.305V233H263.143V140.305Z" fill="#437EF7"/>
<path d="M276.817 98.9082C276.817 97.8036 277.713 96.9082 278.817 96.9082H285C286.105 96.9082 287 97.8036 287 98.9082V233H276.817V98.9082Z" fill="#5CB1FF"/>
</svg>
