<svg width="16" height="4" viewBox="0 0 16 4" fill="none" xmlns="http://www.w3.org/2000/svg">
<path d="M7.68746 1.68741H8.31246M7.68746 2.31241H8.31246M1.85413 1.68741H2.47913M1.85413 2.31241H2.47913M13.5208 1.68741H14.1458M13.5208 2.31241H14.1458M8.8335 1.99996C8.8335 2.4602 8.4604 2.83329 8.00016 2.83329C7.53993 2.83329 7.16683 2.4602 7.16683 1.99996C7.16683 1.53972 7.53993 1.16663 8.00016 1.16663C8.4604 1.16663 8.8335 1.53972 8.8335 1.99996ZM3.00016 1.99996C3.00016 2.4602 2.62707 2.83329 2.16683 2.83329C1.70659 2.83329 1.3335 2.4602 1.3335 1.99996C1.3335 1.53972 1.70659 1.16663 2.16683 1.16663C2.62707 1.16663 3.00016 1.53972 3.00016 1.99996ZM14.6668 1.99996C14.6668 2.4602 14.2937 2.83329 13.8335 2.83329C13.3733 2.83329 13.0002 2.4602 13.0002 1.99996C13.0002 1.53972 13.3733 1.16663 13.8335 1.16663C14.2937 1.16663 14.6668 1.53972 14.6668 1.99996Z" stroke="#5F6D7E" stroke-width="2" stroke-linecap="round"/>
</svg>
