<svg width="100" height="63" viewBox="0 0 100 63" fill="none" xmlns="http://www.w3.org/2000/svg">
<path d="M1 56.2701C1.89322 57.3572 5.94978 62.8547 9.58676 60.4448C13.2238 58.0348 13.3196 49.4506 18.7685 49.4506C24.2175 49.4506 24.5294 10.724 27.6527 8.07065C30.7761 5.41731 32.8306 23.3999 36.537 22.3469C40.2434 21.2939 41.7426 -2.64178 45.4212 2.71444C49.0999 8.07065 50.5019 32.5715 54.3055 35.4816C58.109 38.3918 59.7158 47.6855 63.0335 49.4506C66.3512 51.2156 66.6815 43.7512 72.074 43.7512C77.4664 43.7512 79.5891 23.3477 83.3094 31.9343C87.0296 40.5209 85.3864 57.8748 89.8424 54.8216C94.2984 51.7684 95.2796 41.3667 98.7267 38.6423" stroke="#3694EB" stroke-width="2" stroke-linecap="round" stroke-linejoin="round"/>
</svg>
