<svg width="79" height="60" viewBox="0 0 79 60" fill="none" xmlns="http://www.w3.org/2000/svg">
<path d="M1.3335 58.4054C1.3335 58.4054 5.67204 34.4381 8.48635 32.4073C11.4124 30.296 13.1512 38.9048 16.0102 33.6944C19.2488 27.7922 20.3894 1.26107 23.388 1.00367C26.3866 0.746259 27.9659 14.1314 30.8754 13.874C33.7848 13.6166 36.8942 4.09255 39.6776 5.63699C42.4609 7.18143 46.3443 24.6851 48.5894 24.1703C50.8344 23.6555 53.6796 3.57774 56.0402 3.83514C58.4008 4.09255 60.6786 17.7351 63.491 17.4777C66.3034 17.2203 69.4907 17.8328 70.7227 20.0518C71.9547 22.2708 77.3335 42.4462 77.3335 42.4462" stroke="#5DC264" stroke-width="2" stroke-linecap="round" stroke-linejoin="round"/>
</svg>
